<?xml version="1.0" standalone="no"?>
<!DOCTYPE svg PUBLIC "-//W3C//DTD SVG 20010904//EN"
 "http://www.w3.org/TR/2001/REC-SVG-20010904/DTD/svg10.dtd">
<svg version="1.0" xmlns="http://www.w3.org/2000/svg"
 width="993.000000pt" height="152.000000pt" viewBox="0 0 993.000000 152.000000"
 preserveAspectRatio="xMidYMid meet">
<metadata>
Created by potrace 1.16, written by Peter Selinger 2001-2019
</metadata>
<g transform="translate(0.000000,152.000000) scale(0.100000,-0.100000)"
fill="#000000" stroke="none">
<path d="M8478 1334 l-3 -116 -65 -27 -65 -28 -3 -96 -3 -97 70 0 69 0 4 -272
c6 -326 11 -353 91 -432 37 -37 67 -57 106 -69 69 -22 195 -22 289 0 l72 17 0
124 c0 114 -1 124 -17 117 -10 -5 -47 -10 -83 -12 -79 -5 -126 16 -152 68 -16
29 -18 64 -18 247 l0 212 135 0 135 0 0 125 0 125 -135 0 -135 0 0 115 0 115
-145 0 -144 0 -3 -116z"/>
<path d="M1255 1373 c-101 -13 -261 -92 -344 -169 -60 -55 -161 -194 -161
-221 0 -8 7 -24 15 -36 13 -20 13 -28 -1 -72 -23 -78 -28 -217 -10 -315 31
-173 141 -328 279 -393 58 -28 73 -41 78 -71 5 -25 86 -53 196 -66 312 -39
601 145 706 449 111 320 -38 683 -339 830 -94 46 -117 49 -137 17 -32 -48 -96
-25 -83 29 l6 25 -87 -1 c-49 -1 -101 -4 -118 -6z m154 -82 c38 -47 86 -66
151 -58 55 7 87 -15 75 -52 -12 -40 -107 -49 -202 -20 -40 13 -113 91 -113
122 0 57 47 61 89 8z"/>
<path d="M2663 1235 c-175 -48 -314 -178 -372 -352 -23 -69 -28 -214 -11 -291
30 -130 145 -276 266 -340 197 -103 434 -72 594 76 l55 51 -85 85 c-46 47 -89
86 -95 86 -6 0 -24 -13 -39 -29 -66 -69 -202 -94 -283 -53 -89 46 -136 129
-136 242 0 86 20 143 72 202 49 57 109 81 185 76 54 -3 73 -10 122 -43 33 -22
62 -41 66 -43 8 -4 191 135 196 148 6 16 -121 120 -181 148 -110 52 -245 66
-354 37z"/>
<path d="M4914 1241 c-57 -14 -119 -50 -164 -96 l-45 -46 -10 58 -10 58 -132
3 -133 3 0 -501 0 -500 145 0 145 0 0 284 c0 229 3 290 15 319 50 121 201 184
366 154 l46 -9 6 54 c3 29 9 87 13 129 l7 77 -65 11 c-72 12 -137 13 -184 2z"/>
<path d="M5737 1239 c-60 -14 -115 -47 -162 -95 l-43 -45 -7 43 c-13 84 -2 78
-146 78 l-129 0 0 -500 0 -500 145 0 145 0 0 288 c0 327 3 339 80 405 72 61
184 85 300 64 l46 -9 12 127 c7 70 12 129 10 131 -7 7 -135 24 -173 23 -22 -1
-57 -5 -78 -10z"/>
<path d="M6435 1237 c-171 -44 -312 -191 -360 -373 -19 -75 -19 -214 0 -288
64 -243 280 -402 520 -382 97 8 164 30 219 72 26 20 49 34 50 32 1 -1 7 -19
12 -38 l10 -35 127 -3 127 -3 0 501 0 501 -127 -3 -127 -3 -10 -35 c-5 -19
-11 -37 -12 -39 -1 -1 -20 11 -42 28 -61 50 -134 72 -242 77 -58 2 -115 -1
-145 -9z m301 -282 c37 -24 56 -44 79 -90 26 -51 30 -69 30 -139 0 -94 -15
-144 -58 -192 -64 -74 -183 -103 -273 -69 -189 72 -235 323 -85 458 63 57 94
68 182 65 64 -3 83 -8 125 -33z"/>
<path d="M3330 880 c0 -204 4 -359 11 -389 15 -73 77 -163 141 -205 79 -51
152 -69 268 -64 83 3 106 8 158 34 l60 30 16 -33 16 -33 125 0 125 0 0 500 0
500 -145 0 -145 0 0 -319 c0 -313 0 -319 -23 -352 -33 -51 -100 -82 -163 -76
-66 7 -110 29 -134 70 -19 30 -20 52 -20 355 l0 322 -145 0 -145 0 0 -340z"/>
<path d="M7310 720 l0 -500 139 0 139 0 4 312 c3 274 5 317 20 345 50 91 189
117 273 51 52 -41 55 -61 55 -398 l0 -310 145 0 145 0 0 330 c0 339 -5 401
-42 473 -27 53 -84 114 -136 144 -117 69 -318 70 -429 1 l-33 -19 -17 35 -17
36 -123 0 -123 0 0 -500z"/>
</g>
</svg>
